<svg xmlns="http://www.w3.org/2000/svg" viewBox="0 0 500 500"><g id="freepik--background-complete--inject-5"><rect y="382.4" width="500" height="0.25" style="fill:#ebebeb"></rect><rect x="416.78" y="398.49" width="33.12" height="0.25" style="fill:#ebebeb"></rect><rect x="322.53" y="401.21" width="8.69" height="0.25" style="fill:#ebebeb"></rect><rect x="396.59" y="389.21" width="19.19" height="0.25" style="fill:#ebebeb"></rect><rect x="52.46" y="390.89" width="43.19" height="0.25" style="fill:#ebebeb"></rect><rect x="104.56" y="390.89" width="6.33" height="0.25" style="fill:#ebebeb"></rect><rect x="131.47" y="395.11" width="93.68" height="0.25" style="fill:#ebebeb"></rect><path d="M237,337.8H43.91a5.71,5.71,0,0,1-5.7-5.71V60.66A5.71,5.71,0,0,1,43.91,55H237a5.71,5.71,0,0,1,5.71,5.71V332.09A5.71,5.71,0,0,1,237,337.8ZM43.91,55.2a5.46,5.46,0,0,0-5.45,5.46V332.09a5.46,5.46,0,0,0,5.45,5.46H237a5.47,5.47,0,0,0,5.46-5.46V60.66A5.47,5.47,0,0,0,237,55.2Z" style="fill:#ebebeb"></path><path d="M453.31,337.8H260.21a5.72,5.72,0,0,1-5.71-5.71V60.66A5.72,5.72,0,0,1,260.21,55h193.1A5.71,5.71,0,0,1,459,60.66V332.09A5.71,5.71,0,0,1,453.31,337.8ZM260.21,55.2a5.47,5.47,0,0,0-5.46,5.46V332.09a5.47,5.47,0,0,0,5.46,5.46h193.1a5.47,5.47,0,0,0,5.46-5.46V60.66a5.47,5.47,0,0,0-5.46-5.46Z" style="fill:#ebebeb"></path><rect x="64" y="251.3" width="30.54" height="131.1" transform="translate(158.53 633.7) rotate(180)" style="fill:#e6e6e6"></rect><polygon points="69.8 382.4 63.99 382.4 63.99 365.9 75.88 365.9 69.8 382.4" style="fill:#f0f0f0"></polygon><rect x="217.49" y="251.3" width="30.54" height="131.1" transform="translate(465.52 633.7) rotate(180)" style="fill:#e6e6e6"></rect><rect x="64" y="251.3" width="158.56" height="122.97" transform="translate(286.55 625.58) rotate(180)" style="fill:#f0f0f0"></rect><path d="M68.49,256.12h72.84v95.53H68.49V256.12Z" style="fill:#e6e6e6"></path><path d="M145.22,256.12h72.83v95.53H145.22V256.12Z" style="fill:#e6e6e6"></path><path d="M161.51,268.43a5.16,5.16,0,1,1-5.15-5.16A5.16,5.16,0,0,1,161.51,268.43Z" style="fill:#fafafa"></path><path d="M135.35,268.43a5.16,5.16,0,1,1-5.16-5.16A5.16,5.16,0,0,1,135.35,268.43Z" style="fill:#fafafa"></path><polygon points="216.75 382.4 222.55 382.4 222.55 365.9 210.67 365.9 216.75 382.4" style="fill:#f0f0f0"></polygon><rect x="284.48" y="224.96" width="26.47" height="157.44" transform="translate(595.43 607.36) rotate(180)" style="fill:#e6e6e6"></rect><polygon points="289.51 382.4 284.48 382.4 284.48 368.1 294.78 368.1 289.51 382.4" style="fill:#f0f0f0"></polygon><rect x="417.51" y="224.96" width="26.47" height="157.44" transform="translate(861.49 607.36) rotate(180)" style="fill:#e6e6e6"></rect><rect x="284.48" y="224.96" width="137.42" height="148.67" transform="translate(706.39 598.58) rotate(180)" style="fill:#f0f0f0"></rect><path d="M288.38,228.86H418V257H288.38V228.86Z" style="fill:#e6e6e6"></path><path d="M288.38,260.25h63.13v95.5H288.38v-95.5Z" style="fill:#e6e6e6"></path><path d="M354.88,260.25H418v95.5H354.88v-95.5Z" style="fill:#e6e6e6"></path><path d="M369,305.75a4.47,4.47,0,1,1-4.47-4.47A4.47,4.47,0,0,1,369,305.75Z" style="fill:#fafafa"></path><path d="M346.32,305.75a4.47,4.47,0,1,1-4.46-4.47A4.47,4.47,0,0,1,346.32,305.75Z" style="fill:#fafafa"></path><polygon points="416.88 382.4 421.9 382.4 421.9 368.1 411.6 368.1 416.88 382.4" style="fill:#f0f0f0"></polygon><path d="M357.07,243.14a4.47,4.47,0,1,1-4.47-4.46A4.47,4.47,0,0,1,357.07,243.14Z" style="fill:#fafafa"></path><polygon points="193.13 122.99 189.1 122.99 175.29 116.43 191.78 116.43 193.13 122.99" style="fill:#e6e6e6"></polygon><polygon points="190.79 122.99 186.76 122.99 172.95 116.43 176.99 116.43 190.79 122.99" style="fill:#f5f5f5"></polygon><polygon points="95.36 122.99 91.33 122.99 77.51 116.43 94.01 116.43 95.36 122.99" style="fill:#e6e6e6"></polygon><polygon points="93.02 122.99 88.99 122.99 75.18 116.43 79.21 116.43 93.02 122.99" style="fill:#f5f5f5"></polygon><rect x="176.22" y="110.15" width="26.87" height="6.28" style="fill:#e6e6e6"></rect><rect x="65" y="110.15" width="111.22" height="6.28" transform="translate(241.22 226.58) rotate(180)" style="fill:#f5f5f5"></rect><polygon points="193.13 178.99 189.1 178.99 175.29 172.43 191.78 172.43 193.13 178.99" style="fill:#e6e6e6"></polygon><polygon points="190.79 178.99 186.76 178.99 172.95 172.43 176.99 172.43 190.79 178.99" style="fill:#f5f5f5"></polygon><polygon points="95.36 178.99 91.33 178.99 77.51 172.43 94.01 172.43 95.36 178.99" style="fill:#e6e6e6"></polygon><polygon points="93.02 178.99 88.99 178.99 75.18 172.43 79.21 172.43 93.02 178.99" style="fill:#f5f5f5"></polygon><rect x="176.22" y="166.15" width="26.87" height="6.28" style="fill:#e6e6e6"></rect><rect x="65" y="166.15" width="111.22" height="6.28" transform="translate(241.22 338.58) rotate(180)" style="fill:#f5f5f5"></rect><rect x="96.89" y="132.82" width="31.31" height="33.33" style="fill:#e0e0e0"></rect><rect x="88.87" y="132.82" width="8.02" height="33.33" transform="translate(185.76 298.97) rotate(180)" style="fill:#f0f0f0"></rect><rect x="112.89" y="127.68" width="23.52" height="38.47" style="fill:#e6e6e6"></rect><rect x="106.09" y="127.68" width="6.8" height="38.47" transform="translate(218.99 293.83) rotate(180)" style="fill:#f0f0f0"></rect><rect x="119.82" y="132.82" width="19.83" height="33.33" style="fill:#f0f0f0"></rect><rect x="115.29" y="132.82" width="4.53" height="33.33" transform="translate(235.11 298.97) rotate(180)" style="fill:#fafafa"></rect><rect x="136.05" y="138.46" width="26.01" height="27.69" style="fill:#e6e6e6"></rect><rect x="129.38" y="138.46" width="6.66" height="27.69" transform="translate(265.43 304.61) rotate(180)" style="fill:#fafafa"></rect><rect x="149.34" y="134.19" width="19.54" height="31.96" style="fill:#e6e6e6"></rect><rect x="143.69" y="134.19" width="5.65" height="31.96" transform="translate(293.04 300.34) rotate(180)" style="fill:#f0f0f0"></rect><rect x="155.1" y="138.46" width="18.98" height="27.69" style="fill:#f0f0f0"></rect><rect x="151.34" y="138.46" width="3.76" height="27.69" transform="translate(306.43 304.61) rotate(180)" style="fill:#fafafa"></rect><path d="M358.65,101.32c-6.94.91-13.33,6.19-11.16,13.35,3.6,11.86-13.68,10.75-14.11,29.29-.62,26.18,26,8.74,24.2,33.61-1.33,18.1,24,35.22,31.73,12.6,8.47-24.77,16.05-6,26.84-33.22,7.46-18.85-18.59-27-8.83-31.45,7.13-3.22,12.81-10.17,6.15-17-9.07-9.37,3-12.82-3.07-19.32s-9.67,1.19-20.3-5c-9.51-5.56-21.48,3.23-21.3,10.26C369,100.92,365.63,100.4,358.65,101.32Z" style="fill:#e6e6e6"></path><path d="M345,182.4s.86,42.85,33.62,42.85,33.61-42.85,33.61-42.85Z" style="fill:#f0f0f0"></path><rect x="78.67" y="95.25" width="35.33" height="14.9" style="fill:#f0f0f0"></rect><rect x="77.51" y="90.75" width="36.49" height="4.5" style="fill:#f0f0f0"></rect><rect x="114" y="90.75" width="10.83" height="4.5" transform="translate(238.83 186) rotate(180)" style="fill:#ebebeb"></rect><rect x="114" y="95.25" width="9.89" height="14.9" transform="translate(237.89 205.4) rotate(180)" style="fill:#ebebeb"></rect><rect x="78.67" y="95.25" width="45.22" height="1.39" style="fill:#e0e0e0;opacity:0.7000000000000001"></rect><rect x="118.62" y="74.6" width="55.78" height="35.55" style="fill:#f0f0f0"></rect><rect x="116.8" y="71.82" width="57.59" height="2.78" style="fill:#f0f0f0"></rect><rect x="174.4" y="71.82" width="17.1" height="2.78" transform="translate(365.9 146.41) rotate(180)" style="fill:#ebebeb"></rect><rect x="174.4" y="74.6" width="15.61" height="35.55" transform="translate(364.41 184.74) rotate(180)" style="fill:#ebebeb"></rect><rect x="118.62" y="74.6" width="71.39" height="1.62" style="fill:#e0e0e0;opacity:0.7000000000000001"></rect></g><g id="freepik--Shadow--inject-5"><ellipse id="freepik--path--inject-5" cx="250" cy="416.24" rx="193.89" ry="11.32" style="fill:#f5f5f5"></ellipse></g><g id="freepik--Lamp--inject-5"><path d="M343.44,273.15a.34.34,0,0,1-.23-.08.37.37,0,0,1-.06-.52c7.14-9.11,6.48-19.44,5.65-32.51-.29-4.56-.59-9.28-.62-14.48-.05-9,3.52-23.55,7-37.64,4.32-17.64,8.78-35.89,5-39.89-6.71-7.14-29.49,1.17-41.62,9.8-9.94,7.08-17.79,5.7-32.05,3.18-3.73-.66-8-1.4-12.78-2.08-19-2.69-21.06.29-23.92,4.41-.55.79-1.13,1.61-1.85,2.46a.37.37,0,0,1-.53,0,.39.39,0,0,1,0-.53,27.27,27.27,0,0,0,1.8-2.4c3-4.34,5.19-7.48,24.65-4.73,4.82.69,9.06,1.43,12.8,2.09,14.06,2.48,21.8,3.85,31.49-3.05,12.63-9,35.51-17.24,42.6-9.7,4,4.29-.28,21.92-4.85,40.58-3.43,14-7,28.56-6.94,37.46,0,5.18.33,9.88.62,14.43.84,13.24,1.5,23.69-5.81,33A.39.39,0,0,1,343.44,273.15Z" style="fill:#263238"></path><circle cx="242.72" cy="186.44" r="8.99" transform="translate(-60.74 226.24) rotate(-45)" style="fill:#fff"></circle><circle cx="242.72" cy="186.44" r="8.99" transform="translate(-60.74 226.24) rotate(-45)" style="fill:#5A92FA;opacity:0.30000000000000004"></circle><path d="M248.66,164.63A11.74,11.74,0,0,0,226,170.56l4.76,23.83,25.45-6.64Z" style="fill:#5A92FA"></path><path d="M253,166.67a6.67,6.67,0,1,1-6.67-6.67A6.66,6.66,0,0,1,253,166.67Z" style="fill:#263238"></path><path d="M246.33,172.54a5.88,5.88,0,1,1,5.88-5.87A5.87,5.87,0,0,1,246.33,172.54Zm0-10.75a4.88,4.88,0,1,0,4.88,4.88A4.88,4.88,0,0,0,246.33,161.79Z" style="fill:#5A92FA"></path><path d="M246.33,167.67a1,1,0,0,1-1-.85,1,1,0,0,1,.84-1.14l136.55-20.89a1,1,0,0,1,.3,2L246.48,167.65Z" style="fill:#263238"></path><path d="M326.88,402.69h-.14a1,1,0,0,1-.86-1.13l37.19-275.24a1,1,0,0,1,1.12-.85,1,1,0,0,1,.86,1.12L327.87,401.82A1,1,0,0,1,326.88,402.69Z" style="fill:#263238"></path><path d="M365.06,149.13a4.06,4.06,0,1,1-4.06-4.06A4.06,4.06,0,0,1,365.06,149.13Z" style="fill:#263238"></path></g><g id="freepik--Sofa--inject-5"><rect x="124.12" y="357.14" width="251.76" height="52.04" transform="translate(500 766.32) rotate(180)" style="fill:#5A92FA"></rect><rect x="124.12" y="357.14" width="251.76" height="52.04" transform="translate(500 766.32) rotate(180)" style="fill:#fff;opacity:0.1"></rect><path d="M124.12,334.26H375.88l3.82-39.11a38.47,38.47,0,0,0-38.29-42.21H158.59a38.47,38.47,0,0,0-38.29,42.21Z" style="fill:#5A92FA"></path><path d="M124.12,334.26H375.88l3.82-39.11a38.47,38.47,0,0,0-38.29-42.21H158.59a38.47,38.47,0,0,0-38.29,42.21Z" style="opacity:0.30000000000000004"></path><rect x="124.12" y="357.14" width="251.76" height="2.95" transform="translate(500 717.23) rotate(180)" style="fill:#5A92FA;opacity:0.9"></rect><rect x="124.12" y="329.67" width="251.76" height="27.47" transform="translate(500 686.81) rotate(180)" style="fill:#5A92FA"></rect><rect x="124.12" y="329.67" width="251.76" height="27.47" transform="translate(500 686.81) rotate(180)" style="opacity:0.2"></rect><path d="M379.4,286.77h0a25.6,25.6,0,0,0-25.55,27.17l5,81.89a9.47,9.47,0,0,0,9.46,8.9h22.12a9.49,9.49,0,0,0,9.47-8.9l5-81.89A25.6,25.6,0,0,0,379.4,286.77Z" style="fill:#5A92FA"></path><circle cx="379.4" cy="313.8" r="20.2" transform="translate(-56.89 541.99) rotate(-67.2)" style="fill:#fff;opacity:0.1"></circle><polygon points="374.75 413.63 384.05 413.63 385.5 404.73 373.3 404.73 374.75 413.63" style="fill:#263238"></polygon><polygon points="115.46 413.63 124.76 413.63 126.21 404.73 114.01 404.73 115.46 413.63" style="fill:#263238"></polygon><path d="M120.6,286.77h0a25.6,25.6,0,0,0-25.55,27.17l5,81.89a9.49,9.49,0,0,0,9.47,8.9h22.12a9.47,9.47,0,0,0,9.46-8.9l5-81.89A25.6,25.6,0,0,0,120.6,286.77Z" style="fill:#5A92FA"></path><circle cx="120.6" cy="313.8" r="20.2" transform="translate(-215.42 303.4) rotate(-67.2)" style="fill:#fff;opacity:0.1"></circle></g><g id="freepik--Character--inject-5"><path d="M180,227.94c1.35.84,2.93,1.78,4.41,2.66s3,1.78,4.56,2.64c3.05,1.74,6.14,3.38,9.24,5s6.23,3,9.37,4.29a68.75,68.75,0,0,0,9.32,3.1l-1.24-.12c2.82.1,6.05.07,9.21,0l9.6-.25c6.43-.16,12.92-.33,19.4-.27l.9,7.23c-3.18.83-6.37,1.53-9.57,2.2s-6.4,1.28-9.62,1.85-6.47,1.09-9.74,1.52-6.53.85-10.18,1l-.41,0-.84-.14a70.3,70.3,0,0,1-11.7-3,113.66,113.66,0,0,1-10.78-4.31c-3.5-1.58-6.88-3.33-10.21-5.16-1.65-.92-3.3-1.86-4.92-2.85s-3.19-2-4.9-3.12Z" style="fill:#ffc3bd"></path><path d="M167,230.34c-1.59-6.44,7.18-6.89,32.46,4.81l-5.56,20.28S171.83,250,167,230.34Z" style="fill:#5A92FA"></path><path d="M177.15,236.35c-2.13,0-4.17,1.5-5.87,3.61,6.58,9.72,17.52,13.89,21.29,15.08l.13,0,.28.07C189.11,241.88,183,236.45,177.15,236.35Z" style="opacity:0.2"></path><polygon points="278.04 325.1 288.42 323.46 285.69 296.99 275.31 298.63 278.04 325.1" style="fill:#ffc3bd"></polygon><path d="M288.89,317.5l-12.38.18a.9.9,0,0,0-.85.81l-1.59,10.31a1.72,1.72,0,0,0,1.62,2c4.08-.14,8.41-.45,13.55-.52,3.16-.05,10.95.18,15.32.12s4.72-4.88,2.91-5.29c-8.11-1.83-14.17-4.43-16.86-7A2.44,2.44,0,0,0,288.89,317.5Z" style="fill:#263238"></path><path d="M202.22,295s38-43.78,57.89-39.56c22.81,4.85,31.89,53.33,31.89,53.33l-17.66,2s-9.23-21.68-19.76-29.62C233,316,177.79,341.76,171,305.8,180.07,302.15,202.22,295,202.22,295Z" style="fill:#263238"></path><polygon points="293.71 309.08 271.68 313.39 270.02 306.12 293 301.15 293.71 309.08" style="fill:#263238"></polygon><path d="M251.47,245.19l8.5-1.63,3.55,10.13s-8.5,2.82-12.63-2.53Z" style="fill:#ffc3bd"></path><polygon points="269.78 245.6 271.97 252.94 263.52 253.69 259.97 243.56 269.78 245.6" style="fill:#ffc3bd"></polygon><path d="M155.69,308.4S139.13,284,131,244.68a15.55,15.55,0,0,1,14.43-18.62c8-.42,16.44-.53,23.3-.5a15.47,15.47,0,0,1,14.82,11.21c3.73,13.08,6.08,30.21,20.7,54.53,2.35,3.9-.53,8.95-5,9.71Z" style="fill:#5A92FA"></path><path d="M130.79,239.9c5.59-7.8,10.58-8.9,12-8.46,12.92,4.08-1,39.68-3.1,43.65A214.37,214.37,0,0,1,131,244.57,15.11,15.11,0,0,1,130.79,239.9Z" style="opacity:0.2"></path><path d="M195.89,311.44c-.35,1.27.64,5.4,6.66,10.08,8.17-2.23,17-6.67,25.31-12.56C215.67,305.52,198.34,302.59,195.89,311.44Z" style="opacity:0.2"></path><path d="M145.33,201c2.6,7.08,5.93,19.87,1.9,25a25.23,25.23,0,0,0,18,6.13c8.3-.27,6.61-3.59,3.89-6.53-8.07-1.37-8.9-8.17-8.52-13.83Z" style="fill:#ffc3bd"></path><path d="M151.55,205.37l9,6.36a24.26,24.26,0,0,0,0,4c-3.06,1.06-8.05-1.76-8.92-4.94A18.39,18.39,0,0,1,151.55,205.37Z" style="opacity:0.2"></path><path d="M162,193.22c1.62,3.1,4.68,4.69,6.84,3.57s2.59-4.55,1-7.65-4.68-4.69-6.84-3.56S160.36,190.13,162,193.22Z" style="fill:#5A92FA"></path><path d="M159.88,194.32c1.72,3.29,5,5,7.27,3.79s2.75-4.84,1-8.13-5-5-7.27-3.79S158.16,191,159.88,194.32Z" style="fill:#fff"></path><path d="M162.41,191.48l4.11-1.2s-2.77-4.51-2.53-8.18.94-6.49-6.2-6.33S146.68,183,162.41,191.48Z" style="fill:#263238"></path><path d="M139.66,197.74c5,8.27,7.48,13.35,14.18,15.69a12.47,12.47,0,0,0,16.47-14.81c-2.12-8.51-9.92-20.61-20.25-20.07S134.68,189.47,139.66,197.74Z" style="fill:#ffc3bd"></path><path d="M138.83,189.94c7.82-1.24,21.24-5.94,19.51-15.27-1.17-6.27-10.94-4.34-13-1.17a39.74,39.74,0,0,1-11.91,10.67C128.67,186.83,127.16,191.8,138.83,189.94Z" style="fill:#263238"></path><path d="M142.72,204.22l3.93-1.7s-3.32-4.13-3.54-7.8.11-6.56-6.94-5.5S126.06,197.83,142.72,204.22Z" style="fill:#263238"></path><path d="M141.67,200.13a.47.47,0,0,1-.35-.15c-5.37-5.28-6.2-10.4-6.21-13,0-2.42.66-4.6,1.75-5.7a.5.5,0,0,1,.71,0,.5.5,0,0,1,0,.7,7.35,7.35,0,0,0-1.46,5c0,2.42.8,7.24,5.91,12.27a.5.5,0,0,1,0,.71A.47.47,0,0,1,141.67,200.13Z" style="fill:#5A92FA"></path><path d="M139.88,208.16a8.71,8.71,0,0,0,6.24,1.4c2.86-.48,3-3.25,1-5.24-1.72-1.8-5.29-3.7-7.62-2.2S137.64,206.63,139.88,208.16Z" style="fill:#ffc3bd"></path><path d="M146.53,201.85c2.34,2.89,2.61,6.55.6,8.18s-5.53.61-7.87-2.28-2.61-6.54-.6-8.17S144.2,199,146.53,201.85Z" style="fill:#fff"></path><path d="M144.69,203.35c2.2,2.71,2.45,6.15.56,7.68s-5.2.58-7.4-2.14-2.45-6.15-.56-7.68S142.49,200.63,144.69,203.35Z" style="fill:#5A92FA"></path><path d="M151.08,195.4l-.75,0a3.9,3.9,0,0,1,1.38-2.46,1.69,1.69,0,0,1,1.44-.43,1.51,1.51,0,0,1,1,.82l-.67.35a.77.77,0,0,0-.5-.44,1,1,0,0,0-.82.29A3.28,3.28,0,0,0,151.08,195.4Z" style="fill:#263238"></path><path d="M159.81,190.08a1.25,1.25,0,0,1,0-1.09,1.63,1.63,0,0,1,1.11-.79,2.26,2.26,0,0,1,2.16.57l-.52.54a1.48,1.48,0,0,0-1.45-.38.89.89,0,0,0-.63.4.55.55,0,0,0,0,.47Z" style="fill:#263238"></path><path d="M158.25,192.11s3.71,3.26,6.5,4.37c-.66,1.73-3.07,2.19-3.07,2.19Z" style="fill:#ed847e"></path><path d="M159.67,203.36a6.91,6.91,0,0,1-5.21-.42.22.22,0,0,1-.08-.31.22.22,0,0,1,.32-.07,6.63,6.63,0,0,0,5.72,0,.24.24,0,0,1,.31.11.22.22,0,0,1-.1.3A7.13,7.13,0,0,1,159.67,203.36Z" style="fill:#263238"></path><path d="M147.28,193.63a.65.65,0,0,1-.24,0,.46.46,0,0,1-.38-.54,4.33,4.33,0,0,1,2.52-3.24.49.49,0,0,1,.62.25.44.44,0,0,1-.25.59h0a3.46,3.46,0,0,0-2,2.59A.45.45,0,0,1,147.28,193.63Z" style="fill:#263238"></path><path d="M163.05,186.25a.49.49,0,0,1-.44,0,3.85,3.85,0,0,0-3.39-.16.48.48,0,0,1-.64-.18.43.43,0,0,1,.16-.61,4.83,4.83,0,0,1,4.28.15.44.44,0,0,1,.21.61A.41.41,0,0,1,163.05,186.25Z" style="fill:#263238"></path><polygon points="275.49 413.17 284.37 407.77 271.83 383.96 262.95 389.36 275.49 413.17" style="fill:#ffc3bd"></polygon><path d="M280.76,400.39l-10.34,5.17a.84.84,0,0,0-.34,1.06l3.31,9.84a1.71,1.71,0,0,0,2.24,1.18c3.29-1.73,5.59-3.18,9.78-5.27,2.58-1.29,10.53-4.86,14.09-6.64s1.7-6.22,0-5.87c-7.48,1.56-13.71,1.67-17,.47A2.17,2.17,0,0,0,280.76,400.39Z" style="fill:#263238"></path><path d="M194.21,301.87s19.32,2.66,47.46,21.13c19.49,12.8,36.5,65.33,36.5,65.33l-15.24,10.41S243.56,356.57,227.34,341c-53.3-12.69-69,3.9-71.65-32.59C165.11,305.79,194.21,301.87,194.21,301.87Z" style="fill:#263238"></path><polygon points="281.83 390.64 261.76 400.71 258.21 394.15 279.02 383.2 281.83 390.64" style="fill:#263238"></polygon><path d="M144.32,243.83c-1.95,6.31-4,12.82-5.71,19.19-.88,3.19-1.68,6.39-2.36,9.5-.32,1.55-.61,3.09-.81,4.54a24.16,24.16,0,0,0-.31,3.75c0,.22,0,.35,0,.41s0,0,0-.05l0,0c0-.09-.09-.22-.15-.33s-.21-.38-.3-.51c-.36-.48-.44-.46-.43-.44a2.81,2.81,0,0,0,.36.32,23.54,23.54,0,0,0,3.49,2c2.77,1.34,5.84,2.63,8.94,3.83,6.21,2.44,12.67,4.7,19,7.09l-1.6,7.11a167.35,167.35,0,0,1-20.75-3.49,95.24,95.24,0,0,1-10.46-3,34.07,34.07,0,0,1-5.7-2.58,18.09,18.09,0,0,1-1.72-1.19,10.76,10.76,0,0,1-2.19-2.31,9.36,9.36,0,0,1-.62-1.06c-.1-.21-.2-.43-.28-.63l-.13-.34c-.18-.47-.29-.87-.41-1.28a17.13,17.13,0,0,1-.39-2.13,32.77,32.77,0,0,1-.08-6.53c.15-2,.39-3.81.66-5.63.55-3.65,1.3-7.14,2.1-10.6a205.77,205.77,0,0,1,5.94-20.3Z" style="fill:#ffc3bd"></path><path d="M141.81,226.69c-2,.54-11.07,1.9-17.51,24.07l21.79,8.5S161.18,221.51,141.81,226.69Z" style="fill:#5A92FA"></path><path d="M165.79,292.9l7.65,3.81-7,8.45s-8-5.14-6.54-9.49l2.9-2.42A2.77,2.77,0,0,1,165.79,292.9Z" style="fill:#ffc3bd"></path><polygon points="180.35 304.4 172.71 310.64 166.4 305.16 173.44 296.71 180.35 304.4" style="fill:#ffc3bd"></polygon></g></svg>